<svg width="40" height="40" viewBox="0 0 40 40" fill="none" xmlns="http://www.w3.org/2000/svg">
<circle cx="20" cy="20" r="20" fill="#25927F"/>
<path d="M28.8472 22.8557L24.4306 20.8766L24.4184 20.871C24.1892 20.7729 23.939 20.7336 23.6907 20.7565C23.4424 20.7794 23.2037 20.8639 22.9963 21.0022C22.9718 21.0184 22.9484 21.0359 22.9259 21.0547L20.6441 23.0001C19.1984 22.2979 17.7059 20.8166 17.0038 19.3897L18.9519 17.0732C18.9706 17.0497 18.9884 17.0263 19.0053 17.001C19.1407 16.7941 19.2229 16.5569 19.2445 16.3106C19.2661 16.0643 19.2264 15.8164 19.1291 15.5891V15.5779L17.1444 11.1538C17.0157 10.8569 16.7944 10.6095 16.5136 10.4487C16.2328 10.2878 15.9075 10.2221 15.5863 10.2613C14.3159 10.4285 13.1499 11.0523 12.3059 12.0164C11.4619 12.9805 10.9977 14.2188 11 15.5001C11 22.9438 17.0563 29.0001 24.5 29.0001C25.7813 29.0023 27.0196 28.5382 27.9837 27.6942C28.9477 26.8502 29.5716 25.6841 29.7388 24.4138C29.7781 24.0927 29.7125 23.7674 29.5518 23.4866C29.3911 23.2058 29.144 22.9845 28.8472 22.8557ZM24.5 27.5001C21.3185 27.4966 18.2682 26.2312 16.0186 23.9815C13.7689 21.7318 12.5035 18.6816 12.5 15.5001C12.4965 14.5846 12.8263 13.6991 13.4279 13.009C14.0295 12.3189 14.8617 11.8714 15.7691 11.7501C15.7687 11.7538 15.7687 11.7576 15.7691 11.7613L17.7378 16.1676L15.8 18.4869C15.7803 18.5096 15.7625 18.5337 15.7466 18.5591C15.6055 18.7756 15.5227 19.0249 15.5063 19.2827C15.4899 19.5406 15.5403 19.7984 15.6528 20.031C16.5022 21.7682 18.2525 23.5054 20.0084 24.3538C20.2428 24.4652 20.502 24.5139 20.7608 24.4952C21.0196 24.4765 21.2692 24.3909 21.485 24.2469C21.5091 24.2307 21.5322 24.2132 21.5544 24.1944L23.8334 22.2501L28.2397 24.2235C28.2397 24.2235 28.2472 24.2235 28.25 24.2235C28.1301 25.1322 27.6833 25.9661 26.9931 26.5691C26.3028 27.1722 25.4166 27.5031 24.5 27.5001Z" fill="white"/>
</svg>
