<svg width="40" height="40" viewBox="0 0 40 40" fill="none" xmlns="http://www.w3.org/2000/svg">
<circle cx="20" cy="20" r="20" fill="#25927F"/>
<path d="M20 14C19.2583 14 18.5333 14.2199 17.9166 14.632C17.2999 15.044 16.8193 15.6297 16.5355 16.3149C16.2516 17.0002 16.1774 17.7542 16.3221 18.4816C16.4667 19.209 16.8239 19.8772 17.3483 20.4017C17.8728 20.9261 18.541 21.2833 19.2684 21.4279C19.9958 21.5726 20.7498 21.4984 21.4351 21.2145C22.1203 20.9307 22.706 20.4501 23.118 19.8334C23.5301 19.2167 23.75 18.4917 23.75 17.75C23.75 16.7554 23.3549 15.8016 22.6517 15.0983C21.9484 14.3951 20.9946 14 20 14ZM20 20C19.555 20 19.12 19.868 18.75 19.6208C18.38 19.3736 18.0916 19.0222 17.9213 18.611C17.751 18.1999 17.7064 17.7475 17.7932 17.311C17.88 16.8746 18.0943 16.4737 18.409 16.159C18.7237 15.8443 19.1246 15.63 19.561 15.5432C19.9975 15.4564 20.4499 15.501 20.861 15.6713C21.2722 15.8416 21.6236 16.13 21.8708 16.5C22.118 16.87 22.25 17.305 22.25 17.75C22.25 18.3467 22.0129 18.919 21.591 19.341C21.169 19.7629 20.5967 20 20 20ZM20 9.5C17.8127 9.50248 15.7157 10.3725 14.1691 11.9191C12.6225 13.4657 11.7525 15.5627 11.75 17.75C11.75 20.6938 13.1103 23.8138 15.6875 26.7734C16.8455 28.1108 18.1489 29.3151 19.5734 30.3641C19.6995 30.4524 19.8498 30.4998 20.0037 30.4998C20.1577 30.4998 20.308 30.4524 20.4341 30.3641C21.856 29.3147 23.1568 28.1104 24.3125 26.7734C26.8859 23.8138 28.25 20.6938 28.25 17.75C28.2475 15.5627 27.3775 13.4657 25.8309 11.9191C24.2843 10.3725 22.1873 9.50248 20 9.5ZM20 28.8125C18.4503 27.5938 13.25 23.1172 13.25 17.75C13.25 15.9598 13.9612 14.2429 15.227 12.977C16.4929 11.7112 18.2098 11 20 11C21.7902 11 23.5071 11.7112 24.773 12.977C26.0388 14.2429 26.75 15.9598 26.75 17.75C26.75 23.1153 21.5497 27.5938 20 28.8125Z" fill="white"/>
</svg>
