<svg width="44" height="44" viewBox="0 0 44 44" fill="none" xmlns="http://www.w3.org/2000/svg">
<circle cx="22" cy="22" r="22" fill="#E9ECEE"/>
<path fill-rule="evenodd" clip-rule="evenodd" d="M15.7934 23.0527L11.1227 21.2382C10.6483 21.0532 10.6442 20.3561 11.1172 20.1662L30.2859 12.4694C30.6922 12.3058 31.1116 12.6763 31.023 13.1205L27.5831 30.3435C27.502 30.7502 27.044 30.9346 26.7207 30.69L22.0248 27.1414C21.7396 26.9259 21.3509 26.9374 21.078 27.1689L18.4745 29.378C18.1722 29.6352 17.7169 29.4919 17.6012 29.1044L15.7934 23.0527ZM26.3642 16.2572L17.5226 22.1232C17.1837 22.3485 17.0241 22.7893 17.1336 23.2021L18.0896 26.8205C18.1575 27.0769 18.503 27.0506 18.5359 26.7856L18.7844 24.8014C18.8313 24.4278 18.9968 24.0836 19.2532 23.8264L26.5502 16.5199C26.6866 16.3835 26.5231 16.1521 26.3642 16.2572Z" fill="#203D53"/>
</svg>
