<svg width="44" height="44" viewBox="0 0 44 44" fill="none" xmlns="http://www.w3.org/2000/svg">
<circle cx="22" cy="22" r="22" fill="#E9ECEE"/>
<path d="M33.8688 14.8938C33.4001 13.2204 32.472 11.8985 31.1126 10.9633C29.397 9.77974 27.4235 9.36255 25.7196 9.10708C23.3618 8.75552 21.2267 8.7063 19.1899 8.95474C17.2821 9.18911 15.8454 9.56177 14.5353 10.1641C11.9665 11.3454 10.4243 13.2555 9.95322 15.8407C9.72353 17.0969 9.56885 18.2313 9.47978 19.3141C9.27353 21.8172 9.46103 24.0321 10.0517 26.0852C10.6282 28.0868 11.6337 29.5165 13.1267 30.4563C13.5063 30.6954 13.9938 30.8688 14.4649 31.0352C14.7321 31.129 14.9923 31.2204 15.2056 31.3211C15.4024 31.4126 15.4024 31.429 15.4001 31.593C15.3837 33.0157 15.4001 35.8047 15.4001 35.8047L15.4048 36.4001H16.4735L16.647 36.2313C16.7618 36.1235 19.4103 33.5641 20.3548 32.5329L20.4837 32.3899C20.6454 32.2024 20.6454 32.2024 20.8118 32.2001C22.0868 32.1743 23.3899 32.1251 24.6837 32.0547C26.2517 31.9704 28.0681 31.818 29.779 31.1055C31.3446 30.4516 32.4884 29.4133 33.1751 28.0211C33.8923 26.568 34.3165 24.9954 34.4759 23.2118C34.7571 20.0758 34.5579 17.3547 33.8688 14.8938ZM28.2298 27.0883C27.836 27.7282 27.2501 28.1735 26.5587 28.4618C26.0524 28.6727 25.5368 28.6282 25.0376 28.4172C20.8587 26.6477 17.5798 23.861 15.4142 19.8532C14.9665 19.0282 14.6571 18.1282 14.3009 17.2563C14.2282 17.0782 14.2329 16.8672 14.2001 16.6704C14.2306 15.2618 15.311 14.4672 16.4032 14.2282C16.8204 14.1344 17.1907 14.2821 17.5001 14.5797C18.3579 15.3954 19.0353 16.3446 19.5462 17.4086C19.7688 17.8751 19.6681 18.2876 19.2884 18.6344C19.2087 18.7071 19.1267 18.7727 19.0399 18.8383C18.1728 19.4899 18.0462 19.9844 18.5079 20.9665C19.2954 22.6376 20.6032 23.7602 22.2931 24.4563C22.7384 24.6391 23.1579 24.5477 23.4978 24.1868C23.5446 24.1399 23.5962 24.093 23.629 24.0368C24.2946 22.9258 25.2626 23.036 26.1556 23.6688C26.7415 24.086 27.311 24.5266 27.8899 24.9508C28.7735 25.6001 28.7665 26.2094 28.2298 27.0883ZM22.6868 16.0001C22.4899 16.0001 22.2931 16.0165 22.0985 16.0493C21.7704 16.1032 21.4634 15.8829 21.4071 15.5547C21.3532 15.229 21.5735 14.9196 21.9017 14.8657C22.1595 14.8211 22.4243 14.8001 22.6868 14.8001C25.286 14.8001 27.4001 16.9141 27.4001 19.5133C27.4001 19.7782 27.379 20.043 27.3345 20.2985C27.2853 20.5915 27.0321 20.8001 26.7438 20.8001C26.711 20.8001 26.6782 20.7977 26.6431 20.7907C26.3173 20.7368 26.097 20.4274 26.1509 20.1016C26.1837 19.9094 26.2001 19.7126 26.2001 19.5133C26.2001 17.5774 24.6228 16.0001 22.6868 16.0001ZM25.6001 19.6001C25.6001 19.9305 25.3306 20.2001 25.0001 20.2001C24.6696 20.2001 24.4001 19.9305 24.4001 19.6001C24.4001 18.6086 23.5915 17.8001 22.6001 17.8001C22.2696 17.8001 22.0001 17.5305 22.0001 17.2001C22.0001 16.8696 22.2696 16.6001 22.6001 16.6001C24.2548 16.6001 25.6001 17.9454 25.6001 19.6001ZM29.0267 20.9336C28.9634 21.2126 28.7149 21.4001 28.4407 21.4001C28.3962 21.4001 28.3517 21.3954 28.3071 21.386C27.9837 21.311 27.7821 20.9899 27.8548 20.6665C27.9415 20.2844 27.986 19.8883 27.986 19.4899C27.986 16.5743 25.6118 14.2001 22.6962 14.2001C22.2978 14.2001 21.9017 14.2446 21.5196 14.3313C21.1962 14.4063 20.8751 14.2024 20.8024 13.879C20.7274 13.5555 20.9313 13.2344 21.2548 13.1618C21.7235 13.054 22.2087 13.0001 22.6962 13.0001C26.2751 13.0001 29.186 15.911 29.186 19.4899C29.186 19.9774 29.1321 20.4626 29.0267 20.9336Z" fill="#203D53"/>
</svg>
