<svg width="44" height="44" viewBox="0 0 44 44" fill="none" xmlns="http://www.w3.org/2000/svg">
<circle cx="22" cy="22" r="22" fill="#E9ECEE"/>
<path d="M22 9C15.373 9 10 14.373 10 21C10 23.2512 10.6323 25.3501 11.7109 27.1504L10.1074 33L16.082 31.4316C17.8294 32.4251 19.8465 33 22 33C28.627 33 34 27.627 34 21C34 14.373 28.627 9 22 9ZM17.8926 15.4023C18.0876 15.4023 18.2879 15.4012 18.4609 15.4102C18.6749 15.4152 18.9079 15.4308 19.1309 15.9238C19.3959 16.5098 19.9729 17.9799 20.0469 18.1289C20.1209 18.2779 20.1733 18.4534 20.0703 18.6484C19.9723 18.8484 19.9213 18.9695 19.7773 19.1465C19.6283 19.3185 19.4651 19.5321 19.3301 19.6621C19.1811 19.8111 19.0272 19.9745 19.1992 20.2715C19.3712 20.5685 19.9686 21.5421 20.8516 22.3281C21.9866 23.3421 22.9442 23.6537 23.2422 23.8027C23.5402 23.9517 23.7128 23.9285 23.8848 23.7285C24.0618 23.5335 24.6281 22.8644 24.8281 22.5664C25.0231 22.2684 25.2222 22.32 25.4922 22.418C25.7662 22.516 27.2274 23.2358 27.5254 23.3848C27.8234 23.5338 28.0187 23.6075 28.0938 23.7285C28.1707 23.8535 28.1708 24.4486 27.9238 25.1426C27.6768 25.8356 26.4639 26.5057 25.9199 26.5527C25.3709 26.6037 24.8586 26.7995 22.3516 25.8125C19.3276 24.6215 17.4205 21.5242 17.2715 21.3242C17.1225 21.1292 16.0605 19.7139 16.0605 18.2539C16.0605 16.7889 16.8287 16.0714 17.0977 15.7734C17.3717 15.4754 17.6926 15.4023 17.8926 15.4023Z" fill="#203D53"/>
</svg>
